<?xml version="1.0" encoding="utf-8"?>
<!-- Generator: Adobe Illustrator 16.0.3, SVG Export Plug-In . SVG Version: 6.00 Build 0)  -->
<!DOCTYPE svg PUBLIC "-//W3C//DTD SVG 1.1//EN" "http://www.w3.org/Graphics/SVG/1.1/DTD/svg11.dtd">
<svg version="1.1"
	 id="svg2910" inkscape:output_extension="org.inkscape.output.svg.inkscape" sodipodi:docname="forget-me-not.svg" sodipodi:docbase="/home/melwe/Utile/Ecles/ImagesMemory" inkscape:version="0.46" sodipodi:version="0.32" xmlns:dc="http://purl.org/dc/elements/1.1/" xmlns:cc="http://creativecommons.org/ns#" xmlns:rdf="http://www.w3.org/1999/02/22-rdf-syntax-ns#" xmlns:svg="http://www.w3.org/2000/svg" xmlns:sodipodi="http://sodipodi.sourceforge.net/DTD/sodipodi-0.dtd" xmlns:inkscape="http://www.inkscape.org/namespaces/inkscape"
	 xmlns="http://www.w3.org/2000/svg" xmlns:xlink="http://www.w3.org/1999/xlink" x="0px" y="0px" width="708.661px"
	 height="494.396px" viewBox="0 0 708.661 494.396" enable-background="new 0 0 708.661 494.396" xml:space="preserve">
<defs>
	
	
		<inkscape:perspective  inkscape:persp3d-origin="354.33069 : 236.22046 : 1" id="perspective3980" inkscape:vp_z="708.66138 : 354.33069 : 1" inkscape:vp_y="0 : 1000 : 0" inkscape:vp_x="0 : 354.33069 : 1" sodipodi:type="inkscape:persp3d">
		</inkscape:perspective>
</defs>
<sodipodi:namedview  height="20cm" width="20cm" units="cm" inkscape:window-y="24" inkscape:window-x="0" inkscape:window-height="1130" inkscape:window-width="1600" inkscape:current-layer="layer1" inkscape:document-units="px" inkscape:pageshadow="2" inkscape:pageopacity="0.0" showgrid="false" inkscape:cy="336.78007" inkscape:cx="141.30349" inkscape:zoom="0.98994949" borderopacity="1.0" bordercolor="#666666" pagecolor="#ffffff" id="base">
	</sodipodi:namedview>
<!-- <g id="layer1" transform="translate(-19.241947,-244.1545)" inkscape:groupmode="layer" inkscape:label="Calque 1"> -->
	<!-- <g id="g3421" transform="matrix(1.0501072,0,0,1.0501072,-0.9641749,100.26681)"> -->
		<path id="path2961" d="M66.945,324.752c-14.199-4.839-40.484,29.452-25.386,6.37C46.716,327.776,67.426,320.623,66.945,324.752z"
			/>
		<path id="path2963" d="M35.623,330.775c-17.614-24.787,5.02-62.443,35.341-54.247c12.704,6.697,29.652,31.811,6.174,11.497
			c-19.13-23.508-49.319-0.079-41.997,25.943C33.531,318.759,38.649,327.747,35.623,330.775z"/>
		<path id="path2965" d="M76.634,281.727c-4.947-23.658,30.664-51.202,38.785-39.281C86.624,236.02,86.929,267.695,76.634,281.727z"
			/>
		<path id="path2969" d="M122.77,290.107c6.854,2.005,12.236-24.351,9.875-5.603C132.954,286.689,111.975,298.178,122.77,290.107z"
			/>
		<path id="path2971" d="M121.109,314.051c19.782-8.284,6.336,5.225-2.64,1.561L121.109,314.051L121.109,314.051z"/>
		<path id="path2973" d="M155.768,277.435C156.281,294.125,136.593,296.929,155.768,277.435z"/>
		<path id="path2975" d="M146.872,297.73c-23.745,15.688-5.489,53.758,21.945,48.223c-25.322,15.751-58.133-35.3-21.488-50.075
			L146.872,297.73L146.872,297.73z"/>
		<path id="path2977" d="M165.154,275.522c-16.979,14.709,5.876,47.977,7.622,44.232
			C150.814,323.698,149.279,281.48,165.154,275.522z"/>
		<path id="path2979" d="M214.344,308.255c-8.532,17.643-46.075,3.34-33.06,34.167c4.651,20.845,35.885,25.363,46.586,18.576
			c-20.859,17.608-58.302-3.939-51.865-31.236C179.95,307.199,207.981,323.746,214.344,308.255z"/>
		<path id="path2981" d="M234.08,322.938c-10.553,25.319,11.724,64.872,38.288,36.746c9.437-9.596,14.549-55.315,14.042-22.1
			c-2.464,24.319-38.88,48.938-55.221,22.821C226.712,350.254,223.728,329.368,234.08,322.938z"/>
		<path id="path2983" d="M262.128,310.385c26.274,31.912,35.507-44.97,9.641-53.144c16.759-7.175,23.991,35.885,16.476,52.557
			C288.371,324.787,255.148,329.127,262.128,310.385z"/>
		<path id="path2987" d="M188.763,261.134c19.132-8.432,42.168,43.436,19.226,12.893
			C205.438,268.117,185.364,267.057,188.763,261.134z"/>
		<path id="path2989" d="M198.541,261.044c11.716-22.404,49.455-24.735,66.434-9.456c8.905,11.905-27.446,44.434-10.491,20.635
			c17.741-10.84-6.296-36.776-24.364-26.105C210.32,240.007,213.127,254.202,198.541,261.044z"/>
		<path id="path2991" d="M173.555,238.184c-19.048-23.058-60.055-5.998-45.426,23.104c9.916,17.654,46.725-1.173,13.879,11.784
			c-32.929-0.506-22.806-43.694,1.986-49.314C149.453,220.821,186.109,232.447,173.555,238.184z"/>
		<path id="path2993" d="M156.833,257.674C183.714,272.514,143.104,267.735,156.833,257.674L156.833,257.674z"/>
		<path id="path2995" d="M167.622,256.945c15.189-3.192,47.044-2.188,12.785,1.33C178.424,258.174,155.682,263.525,167.622,256.945z
			"/>
		<path id="path2997" d="M217.589,241.313c9.86-1.32,33.792-21.606,15.37-6.493C231.252,235.734,212.012,249.941,217.589,241.313z"
			/>
		<path id="path2999" d="M220.696,231.709c3.072-6.071,39.692-32.588,20.007-12.786
			C233.675,214.358,214.692,241.867,220.696,231.709z"/>
		<path id="path3001" d="M138.934,223.306c-8.028-29.554,23.469-50.71,49.751-42.651c14.751,9.677,7.708,59.616,3.296,21.857
			c6.927-32.601-57.086-23.11-48.566,6.83C143.964,213.823,145.665,222.452,138.934,223.306z"/>
		<path id="path3003" d="M197.296,189.82c0.358-21.133,51.54-17.096,14.93-14.539C206.914,180.033,203.972,187.394,197.296,189.82z"
			/>
		<path id="path3005" d="M266.592,205.935c-7.069-23.686-40.565-52.215-24.936-10.32c0.346,16.961,21.461,24.422,25.141,19.308
			c-25.397,21.274-47.496-48.01-21.364-45.606C257.802,175.496,269.561,191.788,266.592,205.935z"/>
		<path id="path3007" d="M248.406,222.614c5.826,13.296,59.824,11.605,21.156,13.466
			C264.237,234.497,237.896,231.849,248.406,222.614z"/>
		<path id="path3009" d="M296.084,258.843c-6.83-10.695-16.049-14.913-19.271-5.999
			C279.316,232.471,309.545,253.314,296.084,258.843z"/>
		<path id="path3011" d="M289.044,243.328c2.842-24.625,52.75-37.085,42.327-3.288c-15.601,14.002-8.754,8.917-1.497-2.978
			c-6.35-24.966-32.638-16.863-36.137,4.205L289.044,243.328L289.044,243.328z"/>
		<path id="path3013" d="M336.857,226.011c27.685-17,51.107,27.118,25.847,43.445c-9.371,9.323-41.575,4.176-13.685,3.473
			c32.766-5.493,21.768-61.413-13.119-45.216L336.857,226.011L336.857,226.011z"/>
		<path id="path3015" d="M365.705,272.227c32.26,17.273-11.321,56.762-34.213,38.111c-25.104-30.944,22.649,18.461,34.724-5.048
			C384.378,296.155,365.998,283.456,365.705,272.227z"/>
		<path id="path3017" d="M292.162,305.699c7.225,18.884,36.932,23.975,36.664,4.021
			C335.503,337.463,278.385,326.146,292.162,305.699z"/>
		<path id="path3019" d="M290.602,293.314C297.59,277.61,310.613,280.359,290.602,293.314z"/>
		<path id="path3021" d="M253.05,174.617c5.198-26.637,50.325-40.586,59.43-9.308c15.967,20.774-27.868,49.484-4.935,28.485
			c15.857-24.924-20.846-62.887-41.789-34.624C261.82,164.548,257.998,170.091,253.05,174.617z"/>
		<path id="path3023" d="M321.799,188.547c17.032-6.282,41.149,36.607,22.877,14.445
			C340.628,196.408,318.001,197.395,321.799,188.547z"/>
		<path id="path3025" d="M328.781,212.517c7.658-18.238,38.938,10.87,23.531,6.482C350.653,206.322,331.921,210.315,328.781,212.517
			z"/>
		<path id="path3027" d="M194.056,225.948c-7.641-6.978-8.761,19.088-8.885,1.561C186.118,224.647,204.763,219.104,194.056,225.948z
			"/>
		<path id="path3029" d="M181.946,237.939c1.708,10.75,18.576,11.276-1.104,9.132C169.671,242.937,194.285,228.35,181.946,237.939z"
			/>
		<path id="path3031" d="M195.986,243.179C221.137,245.281,181.554,252.626,195.986,243.179z"/>
		<path id="path3033" d="M201.046,223.139C230.397,231.192,196.457,237.307,201.046,223.139z"/>
		<path id="path3035" d="M207.604,233.285C223.835,238.53,197.402,242.167,207.604,233.285z"/>
		<path id="path3037" d="M227.385,296.016c-5.915-20.794,30.931-2.456,4.042-9.505C231.426,289.919,232.713,296.116,227.385,296.016
			z"/>
		<path id="path3039" d="M242.72,292.637c15.851-7.167,8.172,22.478,2.788,2.092l-5.407,0.321L242.72,292.637L242.72,292.637z"/>
		<path id="path3041" d="M245.198,302.889c20.357,5.786-14.259,19.987,2.25,12.033C246.55,310.949,247.834,306.386,245.198,302.889z
			"/>
		<path id="path3043" d="M236.675,307.682c5.192,23.513-33.873-5.815-6.584,7.477C233.648,319.072,232.094,307.703,236.675,307.682z
			"/>
		<path id="path3045" d="M222.893,308.375c-19.639-1.76,7.349-21.766-3.971-15.146C219.073,296.396,228.377,306.001,222.893,308.375
			z"/>
		<path id="path3047" d="M235.442,298.21c0.586,10.331,9.721,7.507-5.348,6.501l0.765-2.589L235.442,298.21L235.442,298.21z"/>
		<path id="path3049" d="M199.474,229.992C197.164,238.613,181.725,237.507,199.474,229.992z"/>
		<path id="path3051" d="M308.603,255.11c6.339,23.901-16.695-0.309,3.926-3.107L308.603,255.11L308.603,255.11z"/>
		<path id="path3053" d="M305.587,264.401c-0.632,12.149,15.094,20.839-2.624,13.215
			C298.513,273.872,298.462,265.318,305.587,264.401z"/>
		<path id="path3055" d="M311.229,278.057c3.823,8.917,16.946-5.628,3.509,6.701C309.006,286.503,303.257,281.563,311.229,278.057z"
			/>
		<path id="path3057" d="M319.027,281.779c8.704,3.758,10.156-25.084,9.773-2.602C328.141,282.034,307.696,289.309,319.027,281.779z
			"/>
		<path id="path3059" d="M324.829,268.612c11.586-14.035-21.762-12.668,3.873-14.794
			C336.132,256.797,331.788,268.449,324.829,268.612z"/>
		<path id="path3061" d="M314.712,258.743C303.675,251.838,326.669,253.683,314.712,258.743z"/>
		<path id="path3063" d="M320.627,266.384c-6.906,19.425,1.222-9.555-1.429,10.659C311.18,279.024,313.143,265.041,320.627,266.384z
			"/>
		<path id="path3065" d="M278.74,207.383c-10.71-7.814-2.554,20.89-11.051,1.765C267.636,204.169,290.014,201.313,278.74,207.383z"
			/>
		<path id="path3067" d="M277.66,211.679c-2.323,14.886,32.988,22.833,4.893,16.644C274.337,226.4,268.512,216.889,277.66,211.679z"
			/>
		<path id="path3069" d="M283.957,201.527c17.134-15.845,25.652,36.518,14.43,7.26C297.666,204.638,275.543,205.256,283.957,201.527
			z"/>
		<path id="path3071" d="M289.075,210.004C307.481,212.646,277.745,218.475,289.075,210.004z"/>
		<path id="path3073" d="M138.908,346.522c1.689,20.409,46.125,39.52,45.751,34.394
			C160.089,394.936,127.914,346.364,138.908,346.522L138.908,346.522z"/>
		<path id="path3075" d="M183.888,364.387c6.424,26.711,54.361-1.406,62.556,16.095c-22.793-0.286-42.389-4.546-65.363-2.262
			C176.025,374.65,181.768,367.763,183.888,364.387z"/>
		<path id="path3077" d="M221.181,367.134c14.01,1.797,33.97,15.291,8.909,7.437C227.682,372.164,210.049,371.751,221.181,367.134z"
			/>
		<path id="path3079" d="M151.976,452.433c10.005-16.363,24.774-70.134,48.235-44.861c6.065,13.157-4.415,22.015-4.422,3.867
			c-18.994-29.494-28.526,30.209-41.09,40.061L151.976,452.433L151.976,452.433z"/>
		<path id="path3081" d="M186.336,393.197c13.2-3.49,40.433-24.021,14.195-5.507C199.159,389.508,175.754,401.2,186.336,393.197z"/>
		<path id="path3083" d="M245.944,384.141c24.891,16.319-26.879,47.382-26.517,40.392
			C241.783,418.957,252.05,408.255,245.944,384.141z"/>
		<path id="path3085" d="M255.494,407.313c28.662,16.379,12.912,71.816-21.617,64.184c-16.756-1.576-23.348-28.714-5.527-7.878
			c28.774,23.321,49.329-26.902,30.676-46.932C258.076,411.36,245.437,410.994,255.494,407.313z"/>
		<path id="path3087" d="M194.129,462.802c-9.522,25.432,3.037,54.373,32.976,53.901c28.845,9.015,8.08-62.597,22.308-24.252
			c-0.174,28.504-33.481,34.901-51.695,17.599C179.553,497.935,187.317,474.719,194.129,462.802z"/>
		<path id="path3089" d="M179.425,440.113c-16.084,13.342-42.28,22.202-26.925,49.53c4.775,17.476,53.81,12.781,19.957,16.412
			c-27.082,1.607-38.848-38.152-17.14-52.652C170.013,447.02,169.174,453.908,179.425,440.113z"/>
		<path id="path3091" d="M191.493,432.145c-16.62-3.748,7.932,32.286-10.823,4.734C174.868,427.877,205.158,426.06,191.493,432.145z
			"/>
		<path id="path3093" d="M188.01,446.6c1.083,11.246,14.18,13.286,14.851,10.389C185.234,468.959,183.242,450.912,188.01,446.6z"/>
		<path id="path3095" d="M203.899,450.016c7.263,14.53,7.543-15.723,9.34,3.606C210.675,458.307,192.371,455.048,203.899,450.016z"
			/>
		<path id="path3097" d="M192.712,433.806c-2.053-21.776,32.431,6.661,3.596-7.601C201.823,427.63,195.171,433.661,192.712,433.806z
			"/>
		<path id="path3099" d="M209.178,433.518c20.872-4.892-1.36,27.43,8.125,6.186C216.045,435.58,199.222,438.413,209.178,433.518z"/>
		<path id="path3101" d="M199.269,436.998c-4.697,14.121,10.066-4.544-1.292,10.139C192.998,446.74,194.113,436.339,199.269,436.998
			z"/>
		<path id="path3103" d="M105.744,406.143c-0.473,1.46-4.082,21.403-7.41,8.546C98.192,412.514,112.238,394.454,105.744,406.143z"/>
		<path id="path3105" d="M109.379,413.754c6.507,10.526,21.465,6.433,1.731,9.724C105.822,422.619,101.683,414.783,109.379,413.754z
			"/>
		<path id="path3107" d="M124.204,413.01c9.846,15.036,5.319-22.609,10.58,2.297C132.848,420.739,112.35,419.821,124.204,413.01z"/>
		<path id="path3109" d="M103.518,401.367c1.225-20.771,30.187-0.167,15.062-4.025C116.6,388.47,106.254,397.632,103.518,401.367z"
			/>
		<path id="path3111" d="M122.667,395.241c15.913-4.138,11.381,16.834,0.636,2.559C117.255,401.704,117.18,396.375,122.667,395.241z
			"/>
		<path id="path3113" d="M119.301,403.256c-5.13,8.832,6.936,4.447-3.431,9.369C112.005,410.113,114.771,402.943,119.301,403.256z"
			/>
		<path id="path3117" d="M63.814,386.37c-5.985-28,26.967-46.567,50.788-36.702c17.411,4.982-2.04,58.571,0.919,24.9
			c16.602-34.888-56.317-30.556-46.427,2.18C70.011,380.465,68.223,385.92,63.814,386.37z"/>
		<path id="path3119" d="M121.718,358.469c2.829-7.876,19.354-5.816,3.919-2.938C135.978,348.754,124.528,358.649,121.718,358.469z"
			/>
		<path id="path3121" d="M136.408,403.848c7.63-10.933,14.383-6.01,24.179-1.509c0.025-14.138,14.095-17.466,4.059-2.398
			c-18.046,4.573-17.944-4.811-31.935,7.204l0.516-0.996L136.408,403.848L136.408,403.848z"/>
		<path id="path3123" d="M132.302,424.041c-5.81,20.872,37.75,23.784,6.622,22.754C127.615,445.732,126.838,426.226,132.302,424.041
			z"/>
		<path id="path3125" d="M169.638,392.316C185.589,404.775,158.64,403.453,169.638,392.316L169.638,392.316z"/>
		<path id="path3127" d="M80.658,446.918c8.134,20.783,57.36,12.165,55.177,7.357C123.208,470.599,78.754,467.158,80.658,446.918z"
			/>
		<path id="path3129" d="M99.385,404.503c-19.962-2.152-38.923-38.882-46.934,0.432c-8.967,26.71,31.148,54.025,45.28,26.682
			c15.071-13.296-16.027,27.932-29.175,12.783c-27.18-8.775-29.694-51.025-1.013-59.828
			C83.678,378.377,96.34,408.506,99.385,404.503L99.385,404.503z"/>
		<path id="path3131" d="M93.006,328.89c-7.355,14.757-18.516,23.377-6.211,3.676C87.555,330.723,103.093,321.07,93.006,328.89z"/>
		<path id="path3133" d="M95.321,325.689c11.602-4.88,48.24,2.777,15.509,1.258C108.573,325.356,83.162,332.857,95.321,325.689z"/>
		<path id="path3135" d="M87.724,340.634c12.941,9.602,45.634-25.166,22.579-3.045C106.047,339.439,85.103,352.095,87.724,340.634z"
			/>
		<path id="path3137" d="M29.383,341.887c17.601-6.202,37.485,43.452,26.692,28.887C51.472,357.725,34.543,353.321,29.383,341.887z"
			/>
		<path id="path3139" d="M27.361,345.546c-3.743,11.317,19.353,46.888,5.587,39.403C29.233,374.716,17.714,352.495,27.361,345.546z"
			/>
		<path id="path3141" d="M45.928,440.189c-19.23,13.141-3.546,57.644,13.531,34.52c5.849-14.175,27.089-41.855,10.95-12.639
			c-5.734,34.293-56.583,20.074-33.515-10.326C39.352,447.506,42.209,443.426,45.928,440.189z"/>
		<path id="path3143" d="M23.722,471.162c13.687-4.579,4.06,6.401-1.985,2.37L23.722,471.162L23.722,471.162z"/>
		<path id="path3145" d="M19.242,427.177C32.654,415.779,37.24,419.444,19.242,427.177z"/>
		<path id="path3147" d="M40.654,399.526c-19.968,2.325,6.885,33.07-0.796,28.521C22.485,437.308,31.436,390.578,40.654,399.526z"/>
		<path id="path3149" d="M46.734,426.329C63.029,433.54,31.766,434.082,46.734,426.329z"/>
		<path id="path3151" d="M45.394,395.622C63.186,398.919,32.683,403.08,45.394,395.622z"/>
		<path id="path3153" d="M47.244,410.736C54.87,428.719,31.69,419.201,47.244,410.736z"/>
		<path id="path3155" d="M86.353,305.126c-14.622,5.412,4.933,29.833,12.674,15.409c13.739-6.76,17.324-15.34-3.311-17.442
			c-15.263-14.512,35.175,4.399,10.683,15.198c-13.253,10.24-37.959,11.982-25.803-13.404
			C80.461,301.311,91.832,302.172,86.353,305.126z"/>
		<path id="path3157" d="M92.769,314.092C114.848,300.181,80.695,323.112,92.769,314.092z"/>
		<path id="path3159" d="M23.164,238.948c16.784-22.798,65.266,32.678,32.208,8.769C49.139,232.275,15.67,240.697,23.164,238.948z"
			/>
		<path id="path3161" d="M38.365,234.733c0.867-20.996,59.148-30.899,51.851-27.42c-17.875,2.232-3.749-0.758-19.134,6.173
			C56.441,214.984,45.787,221.89,38.365,234.733z"/>
		<path id="path3163" d="M70.757,275.589c-29.378-0.498,14.047-46.604,16.318-20.677C67.334,234.656,63.209,279.148,70.757,275.589
			L70.757,275.589z"/>
		<path id="path3165" d="M83.886,257.778C83.683,272.777,68.608,266.764,83.886,257.778z"/>
		<path id="path3167" d="M132.765,191.227c-26.152-3.408-46.454,29.115-36.62,40.944
			C67.813,214.933,126.114,182.655,132.765,191.227L132.765,191.227z"/>
		<path id="path3169" d="M110.27,224.771c-7.649,2.704-20.477,19.773-7.905,3.24C102.779,226.967,119.076,218.775,110.27,224.771z"
			/>
		<path id="path3171" d="M128.283,229.054c-11.713-20.179,19.712-54.14,27.958-46.029
			C130.417,183.094,135.6,211.209,128.283,229.054z"/>
		<path id="path3173" d="M168.633,181.79c8.158-6.191,23.935-49.983,24.594-20.071c-10.591,25.328-6.037,1.54-3.284-10.835
			C184.447,161.865,181.323,176.752,168.633,181.79z"/>
		<path id="path3175" d="M190.854,137.394c4.063,13.188,15.227,39.893-1.275,14.958
			C187.961,147.981,183.723,139.019,190.854,137.394z"/>
		<path id="path3177" d="M191.227,137.022c14.545,3.391,24.701,38.967,7.937,13.643
			C197.797,147.358,183.572,139.775,191.227,137.022z"/>
		<path id="path3179" d="M202.107,176.831c-1.967-26.087,49.47-16.312,51.867-12.095
			C234.586,167.871,210.196,151.559,202.107,176.831z"/>
		<path id="path3181" d="M211.54,149.089c14.584-18.278,64.452,24.57,28.999,6.796C233.551,149.226,208.122,145.675,211.54,149.089z
			"/>
		<path id="path3183" d="M247.877,376.759c11.021,8.518,36.059,3.357,9.26,7.351C252.277,384.696,236.011,384.157,247.877,376.759z"
			/>
		<path id="path3185" d="M273.943,383.981C273.2,401.966,256.011,392.599,273.943,383.981z"/>
		<path id="path3187" d="M355.852,380.872c14.041-9.957-8.639-36.73,11.086-22.487C369.882,364.085,356.015,386.576,355.852,380.872
			z"/>
		<path id="path3189" d="M358.414,351.705c23.604-0.199,6.902-56.934,20.733-23.693
			C378.672,336.475,363.158,357.288,358.414,351.705z"/>
		<path id="path3191" d="M261.692,406.967c10.813-30.548,60.482-25.916,59.229,9.017c4.17,16.316-10.493-8.728-10.419-16.104
			C292.631,380.205,272.828,389.677,261.692,406.967L261.692,406.967z"/>
		<path id="path3193" d="M314.137,390.937c8.981-28.037,64.511-12.21,47.201,18.22c-5.972,12.003-25.368,31.994-9.815,9.454
			c27.327-19.983-16.614-54.059-28.912-34.444C322.814,386.36,303.386,399.834,314.137,390.937z"/>
		<path id="path3195" d="M362.465,409.563c30.499-3.609,49.828,39.488,19.86,54.845c-11.052,13.135-47.396-6.43-35.145-8.734
			c24.856,31.704,64.805-15.922,36.309-35.886C380.85,416.494,352.524,413.957,362.465,409.563z"/>
		<path id="path3197" d="M370.897,471.397c-2.481,32.602-44.762,29.846-64.015,16.062c-5.628-12.804,18.145-39.019,3.782-11.243
			c7.188,23.463,55.48,27.945,57.429-3.392l1.466-0.747L370.897,471.397z"/>
		<path id="path3199" d="M274.895,435.54c8.212,14.039,47.465,2.792,15.186,10.527C285.098,446.08,265.317,443.033,274.895,435.54z"
			/>
		<path id="path3201" d="M276.23,445.161c-29.189,19.472,14.635,48.157,21.698,45.061
			C270.545,496.507,246.037,460.768,276.23,445.161z"/>
		<path id="path3203" d="M313.899,428.407c-18.73,28.133,39.855,32.638,22.778,6.157c-0.924-21.298-32.661,4.335-12.071-9.996
			c31.228-3.229,18.876,39.118-8.487,30.786C307.027,457.55,303.136,428.597,313.899,428.407z"/>
		<path id="path3205" d="M323.825,436.092c1.406,11.778,12.236-6.633,3.785,5.04C323.173,449.032,315.104,436.916,323.825,436.092z"
			/>
		<path id="path3207" d="M294.609,497.143c-19.873-2.094-29.635,16.284-31.902,31.108c6.171,15.433,39.556,6.296,11.898,13.407
			c-34.063-6.935-4.262-46.24,17.664-47.106C294.19,493.133,296.39,496.001,294.609,497.143z"/>
		<path id="path3209" d="M307.672,523.97c-15.5,12.409-48.614,29.814-19.809,51.01c11.227,14.613,56.102-10.048,23.118,6.114
			c-26.275,13.069-53.01-25.445-28.301-43.704C294.658,534.401,300.855,536.52,307.672,523.97z"/>
		<path id="path3211" d="M326.644,538.897c-10.188,25.542,25.63,63.345,41.52,31.056c0.166-12.829-0.11-38.737,6.326-12.534
			c2.907,28.901-37.102,36.955-49.68,13.493C320.785,561.009,320.314,543.615,326.644,538.897z"/>
		<path id="path3213" d="M346.121,527.907c24.046,20.756,52.477-6.21,29.341-29.694c6.255-16.186,22.341,30.886,1.086,36.656
			C371.569,540.459,336.475,535.893,346.121,527.907z"/>
		<path id="path3215" d="M303.597,493.746c11.797-7.648,43.015,11.972,14.277,2.425
			C315.586,494.608,291.134,500.172,303.597,493.746z"/>
		<path id="path3217" d="M316.59,501.775c10.06,7.462,39.801-3.902,14.354,5.913C328.689,508.116,304.212,507.578,316.59,501.775z"
			/>
		<path id="path3219" d="M318.694,508.749c-21.8,23.248,27.922,41.774,19.725,10.363c-2.777-15.324,15.645,24.14-8.278,17.521
			C310.899,547.461,300.018,512.829,318.694,508.749z"/>
		<path id="path3221" d="M322.252,520.051c-0.457,12.063,12.763-10.01,4.814,1.038C333.49,527.147,307.039,525.423,322.252,520.051z
			"/>
		<path id="path3223" d="M73.213,474.098c15.118,2.171,40.438-10.482,12.396,1.935C83.675,476.546,61.728,479.916,73.213,474.098z"
			/>
		<path id="path3225" d="M66.309,472.13c11.334-11.818,27.842-15.914,5.898-3.73l-2.652,1.715L66.309,472.13L66.309,472.13z"/>
		<path id="path3227" d="M63.174,481.572c-5.324,12.648,12.504,45.8-5.484,17.332C56.17,493.023,55.395,483.359,63.174,481.572z"/>
		<path id="path3229" d="M88.891,496.662c-31.217,2.039-3.762,50.301,19.162,35.217c19.173-14.338-16.938,17.306-28.028-0.606
			C57.301,518.333,77.629,488.736,88.891,496.662z"/>
		<path id="path3231" d="M117.681,504.741c-19.835,17.972,25.829,26.362,18.099-1.518c7.597-25.666,5.652,34.544-18.333,20.419
			C103.101,522.125,107.89,508.737,117.681,504.741z"/>
		<path id="path3233" d="M105.418,469.134c11.794,6.436,48.939,33.337,16.254,16.228
			C117.027,482.088,101.069,475.956,105.418,469.134z"/>
		<path id="path3235" d="M101.693,475.408c-8.988,17.75,13.634,24.387,22.234,17.96C118.357,501.504,77.634,496.727,101.693,475.408
			z"/>
		<path id="path3237" d="M110.442,479.892C122.078,486.61,99.81,490.512,110.442,479.892z"/>
		<path id="path3239" d="M291.88,338.61C326.832,338.6,286.226,351.714,291.88,338.61z"/>
		<path id="path3241" d="M300.006,345.452c9.633,13.655-4.579,30.897-2.923,6.699C294.85,349.909,295.872,344.956,300.006,345.452z"
			/>
		<path id="path3243" d="M316.681,369.307c-2.277-19.989,25.525-5.459,4.488-9.19C322.227,363.853,320.512,368.141,316.681,369.307z
			"/>
		<path id="path3245" d="M331.374,362.21C320.352,344.757,343.128,342.405,331.374,362.21z"/>
		<path id="path3247" d="M337.762,329.716c2.911,17.854,13.906-7.596,7.415,9.793C339.863,342.592,329.003,333.311,337.762,329.716z
			"/>
		<path id="path3249" d="M342.151,324.122c8.219,8.357,12.551-20.042,12.056-2.801C353.774,324.524,329.835,332.239,342.151,324.122
			z"/>
		<path id="path3251" d="M313.66,335.18C340.208,337.65,308.391,347.281,313.66,335.18z"/>
		<path id="path3253" d="M369.237,345.97c21.062,8.837,44.326,39.657,66.476,18.433c-20.242,25.006-50.997-1.428-67.811-17.511
			L369.237,345.97z"/>
		<path id="path3255" d="M369.744,360.275c13.016,6.919,45.959,22.5,11.837,11.62C378.949,369.958,359.636,364.621,369.744,360.275z
			"/>
		<path id="path3257" d="M371.184,399.673c8.615-5.677,27.025-11.379,28.342-26.418c6.712,14.439-31.928,26.191-27.596,27.271
			l-4.116,1.936L371.184,399.673L371.184,399.673z"/>
		<path id="path3259" d="M380.876,413.034c13.235-21.726,50.72-34.109,66.652-35.023
			C421.636,384.868,399.405,393.058,380.876,413.034z"/>
		<path id="path3261" d="M465.391,320.845c-19.667,4.679-48.747,22.004-19.442,39.289c21.499,23.793,43.93,5.263,65.509-1.973
			c-3.132,7.972-28.379,8.044-25.129,12.185c-21.278,20.451-72.429-12.501-53.763-36.932
			C441.547,324.775,455.201,326.683,465.391,320.845z"/>
		<path id="path3263" d="M493.777,340.768c8.5,11.4,55.095,11.591,17.374,15.328C507.424,351.714,477.868,348.219,493.777,340.768z"
			/>
		<path id="path3265" d="M435.054,286.13c-36.483-6.689-9.08,50.105,7.289,40.113c-30.921,16.962-48.706-45.967-8.39-43.535
			C444.924,275.987,438.404,287.072,435.054,286.13z"/>
		<path id="path3267" d="M455.818,300.702c-19.918,0.131-27.492-58.822-12.822-24.128
			C446.305,283.244,465.581,294.433,455.818,300.702z"/>
		<path id="path3269" d="M478.695,240.316c19.265-1.217,15.309,14.57-0.943,5.865C475.976,244.674,473.66,240.493,478.695,240.316z"
			/>
		<path id="path3271" d="M493.002,300.969c-32.506-11.567-19.592-63.025,13.336-62.235c19.377-2.901,43.809,50.962,17.636,22.824
			c-13.139-28.492-44.095-20.888-45.557,8.522C473.567,282.261,505.471,295.514,493.002,300.969z"/>
		<path id="path3273" d="M524.349,241.732c13.94-41.117,78.387,0.062,46.426,30.401c-8.353,9.325,2.786,8.66-7.096,5.358
			c18.955-21.936,5.643-52.526-23.682-49.923C548.643,218.873,526.484,244.242,524.349,241.732z"/>
		<path id="path3275" d="M582.667,252.545c40.636-1.028,26.158,78.779-11.909,54.293c-20.242-20.051,32.426,18.232,29.945-10.127
			C606.35,279.871,590.258,260.52,582.667,252.545z"/>
		<path id="path3277" d="M592.702,313.937c24.017,28.536-27.49,63.571-48.574,34.595c-17.108-12.664,9.627-62.005,1.635-24.97
			c-6.413,30.364,44.253,45.521,45.434,16.998C592.74,332.175,585.481,320.748,592.702,313.937z"/>
		<path id="path3279" d="M490.833,337.74c-24.211-22.268,29.221-61.99,30.741-41.283C483.78,283.909,502.404,319.557,490.833,337.74
			z"/>
		<path id="path3281" d="M528.967,294.011c-4.391-24.204,41.078-28.19,38.413-0.597c2.412,14.691-25.619,15.031-18.036,12.56
			c-20.896,12.632-9.618-25.804-3.497-0.926c14.34,6.085,23.675-19.032,1.254-29.091c11.206-5.623-19.635,4.443-13.698,16.03
			L528.967,294.011L528.967,294.011z"/>
		<path id="path3283" d="M547.044,286.162c11.351,8.152-6.536,11.788,6.512,3.777C557.175,308.652,530.678,290.311,547.044,286.162z
			"/>
		<path id="path3285" d="M478.667,298.816c3.519,15.642-25.332,11.982-2.58,19.832c11.738,6.251,21.836,19.368,1.095,11.122
			c-22.726-6.204-4.114-26.966-7.533-22.284C469.758,304.735,491.826,283.854,478.667,298.816z"/>
		<path id="path3287" d="M486.706,303.599c6.381,13.166-8.766,17.043-5.014,2.477L486.706,303.599L486.706,303.599z"/>
		<path id="path3289" d="M425.62,236.099c-15.802,1.814-55.584-0.402-24.268,20.176c14.989,8.384,40.154,3.386,9.698,9.592
			c-23.489,3.251-38.488-34.389-5.28-31.822C409.378,234.483,442.51,227.408,425.62,236.099z"/>
		<path id="path3291" d="M440.769,238.071c-10.36,35.161,27.378,14.922,34.969-4.036c18.03-11.34-12.225,26.641-24.213,25.147
			C432.768,270.375,425.265,245.562,440.769,238.071z"/>
		<path id="path3293" d="M476.342,218.897c7.752,3.506,23.982-33.912,19.18-14.565C495.085,207.359,468.746,232.865,476.342,218.897
			z"/>
		<path id="path3295" d="M481.435,206.269C499.266,196.691,465.177,218.195,481.435,206.269z"/>
		<path id="path3297" d="M387.8,235.296c-1.966-33.947,51.602-52.916,67.62-20.649c-17.859-9.278-51.485-24.974-60.41,10.168
			C392.755,228.286,390.892,232.55,387.8,235.296z"/>
		<path id="path3299" d="M438.004,198.899c8.943-17.952,62.239-39.751,57.13-8.097c-7.302,13.301-34.606,27.445-9.091,7.803
			c18.867-26.894-39.812-23.085-39.146-4.713l-4.058,3.024L438.004,198.899L438.004,198.899z"/>
		<path id="path3301" d="M456.231,218.176c-17.234-7.6-11.223,27.472-9.744,14.355c14.82-3.408,18.231-8.75,16.304-20.352
			c25.433,3.18-22.461,28.058-9.954,18.173c-24.953,23.172-10.708-31.238,9.454-16.58l-3.03,2.202L456.231,218.176L456.231,218.176z
			"/>
		<path id="path3303" d="M457.077,218.992C454.165,224.577,447.582,221.985,457.077,218.992z"/>
		<path id="path3305" d="M534.501,216.546c-5.675-10.458-38.586-19.899-33.401-14.547c-0.458,12.115,6.309,51.966-7.177,19.85
			c-9.7-31.925,42.925-29.986,43.822-6.878L534.501,216.546L534.501,216.546z"/>
		<path id="path3307" d="M498.833,191.213c-5.143-40.896,65.788-44.692,58.497-3.256c0.928,22.91-11.277,5.756-6.171-7.033
			c-7.536-17.996-40.338-33.873-38.147-9.372C509.021,178.206,506.347,187.785,498.833,191.213z"/>
		<path id="path3309" d="M559.444,171.75c12.253-39.623,75.84-1.56,40.909,23.868c-10.483,6.38-30.681,18.017-9.43,2.819
			c16.587-8.425-0.201,4.647,10.903-8.237c10.67-24.38-29.372-47.357-37.498-20.677l-2.712,1.738L559.444,171.75L559.444,171.75z"/>
		<path id="path3311" d="M612.986,187.456c34.639,12.936-3.779,49.565-26.004,48.188c-30.932,2.83,33.205-9.991,27.895-14.478
			C636.67,210.622,606.606,195.939,612.986,187.456z"/>
		<path id="path3313" d="M540.62,225.101c-19.581-0.514,3.482-16.298-3.971-17.523c8.295-32.431,65.737,6.558,25.148,17.368
			c-17.532-6.916,24.508,1.404,5.77-16.768c-10.131-16.542-25.994-8.469-29.002,4.281
			C528.229,215.275,557.618,220.12,540.62,225.101z"/>
		<path id="path3315" d="M555.133,208.738C582.842,210.168,534.891,220.264,555.133,208.738z"/>
		<path id="path3317" d="M597.792,233.052c5.007,22.19-16.458,21.904-4.745,2.183L597.792,233.052L597.792,233.052z"/>
		<path id="path3319" d="M624.322,221.568c18.728,8.697-13.395,43.758-0.272,12.969C624.577,229.043,613.058,224.04,624.322,221.568
			z"/>
		<path id="path3321" d="M626.353,223.277c19.315-40.871,64.365,18.789,22.745,30.696c-21.661,11.424,10.54-8.516-1.668-0.332
			c29.084-11.729-1.337-59.752-11.42-36.448C632.973,219.323,630.304,222.78,626.353,223.277z"/>
		<path id="path3323" d="M661.491,248.79c44.847,0.903,5.727,75.326-19.593,40.516c11.511-0.611,37.498,13.331,34.883-16.766
			C686.302,257.598,647.192,254.974,661.491,248.79z"/>
		<path id="path3325" d="M662.356,299.958c18.932,27.88-37.892,53.605-46.275,18.419c-5.236-14.099,11.963-45.69,9.305-13.139
			c-21.127,31.229,55.882,35.288,32.155,0.878C656.358,303.057,659.458,300.084,662.356,299.958z"/>
		<path id="path3327" d="M605.86,300.899C631.533,315.716,590.179,316.39,605.86,300.899z"/>
		<path id="path3329" d="M619.933,291.033c-27.931-19.038,23.641-58.841,21.867-20.32c4.938,9.359-6.856,28.542-11.45,16.91
			c18.969-0.088,1.201,4.787,4.802-12.295c5.652-15.65-21.584-26.236-14.52-4.248C611.918,278.801,633.975,287.37,619.933,291.033z"
			/>
		<path id="path3331" d="M629.31,266.904C645.352,285.324,608.498,275.452,629.31,266.904z"/>
		<path id="path3333" d="M540.59,354.648C572.458,375.027,518.617,364.94,540.59,354.648z"/>
		<path id="path3335" d="M565.539,372.302c-11.937,0.43-25.717,1.905-5.487-4.86C564.591,363.735,574.796,367.903,565.539,372.302z"
			/>
		<path id="path3337" d="M653.741,337.934c32.017-0.592,9.534,56.486,8.152,46.336C679.212,368.86,649.148,351.264,653.741,337.934z
			"/>
		<path id="path3339" d="M596.566,437.66c-30.073-7.429-24.78-65.068,7.603-63.486c26.941-3.041,26.781,52.799,13.931,45.928
			c6.828-20.824-3.101-49.618-29.333-39.359C575.637,397.591,588.05,423.316,596.566,437.66z"/>
		<path id="path3341" d="M626.333,380.909c35.469-6.921,47.951,55.442,11.513,61.34c-15.984-3.719,13.466-3.215,9.207-6.201
			c19.845-19.801-4.107-56.694-25.271-51.875L626.333,380.909L626.333,380.909z"/>
		<path id="path3343" d="M659.917,426.891c42.726,1.063,26.537,69.828-12.556,53.244c-12.993-1.095-22.948-26.641-4.228-11.792
			c25.833,30.123,55.709-17.438,23.355-33.561C665.57,432.11,654.552,428.874,659.917,426.891z"/>
		<path id="path3345" d="M612.599,466.347c-5.239,32.873,59.248,10.866,53.832,24.256
			C650.891,489.89,588.922,495.301,612.599,466.347z"/>
		<path id="path3347" d="M590.029,456.148c-16.857-0.368-26.316-7.009-17.21,14.189c5.191,16.466,23.117,33.36,41.22,24.685
			c-15.501,5.44,18.867-10.533-4.823,3.843c-23.677,15.01-62.098-35.211-37.174-47.026
			C575.495,450.358,603.673,450.267,590.029,456.148z"/>
		<path id="path3349" d="M566.925,420.857C556.881,434.242,552.906,424.308,566.925,420.857z"/>
		<path id="path3351" d="M560.517,441.313C581.181,464.121,541.077,454.798,560.517,441.313z"/>
		<path id="path3353" d="M482.383,375.058c2.104,30.729-51.031,7.629-39.228,42.171c1.542,14.184,32.541,38.905,3.571,22.592
			c-24.748-20.853-3.225-58.311,27.341-49.253C467.173,395.719,477.297,372.129,482.383,375.058z"/>
		<path id="path3355" d="M488.521,392.445c13.118,8.284,2.193,34.989-2.399,11.273C483.516,399.658,480.942,393.403,488.521,392.445
			z"/>
		<path id="path3357" d="M491.425,436.431c-8.448,13.934-51.375-0.311-26.645,22.568c10.239,11.347,62.066,1.919,25.263,12.178
			c-36.843,6.472-51.085-41.821-4.86-31.722C487.095,438.084,489.282,437.303,491.425,436.431z"/>
		<path id="path3359" d="M513.465,443.424c-10.51,31.112,43.615,13.109,41.568-4.812c11.494-23.177,8.712,21.545-10.31,16.358
			c-11.813,4.083-43.202,22.86-37.44-5.63l2.554-2.948L513.465,443.424L513.465,443.424z"/>
		<path id="path3361" d="M533.474,426.323c30.964,9.55,50.986-47.283,11.623-42.157c5.403-13.82,45.066,6.897,23.755,26.806
			C572.7,423.339,515.773,440.234,533.474,426.323z"/>
		<path id="path3363" d="M521.948,355.505c20.74,10.311,9.322,50.292-4.75,50.168c13.605-15.87,11.898-36.018,0.954-48.119
			L521.948,355.505L521.948,355.505z"/>
		<path id="path3365" d="M512.01,416.074c-3.904-12.048-31.245,2.811-16.821,5.527c8.998,8.868,5.643,19.543,18.11,23.338
			c-14.342-5.028,23.283-12.604,12.49-15.797c6.547-14.53-19.126-22.016,2.944-19.064c14.628,16.993-8.161,26.368-11.773,30.393
			c-17.16,26.439-43.543-32.9-13.09-29.25C480.196,415.445,532.406,398.793,512.01,416.074L512.01,416.074z"/>
		<path id="path3367" d="M509.879,421.666C527.552,430.525,493.541,429.741,509.879,421.666z"/>
		<path id="path3369" d="M613.804,423.578c-12.556,13.355-19.061,30.664-0.467,43.488c13.209-3.017,24.752-14.245,11.889-27.057
			c-17.809-0.003-20.785-21.461-2.995-7.164c24.748,1.079,14.336,41.051-1.644,29.653
			C593.51,487.597,586.809,426.889,613.804,423.578L613.804,423.578z"/>
		<path id="path3371" d="M612.88,444.434c3.087,7.721,14.494-0.658,1.339,8.351C607.079,453.218,604.581,446.187,612.88,444.434z"/>
		<path id="path3373" d="M582.312,356.519c4.54,15.091-5.409,30.922-7.994,7.68C574.662,360.047,578.609,357.357,582.312,356.519z"
			/>
		<path id="path3375" d="M599.243,350.571c22.475,3.632,6.984,38.641,6.655,11.747C604.198,357.284,586.181,355.644,599.243,350.571
			z"/>
		<path id="path3377" d="M593.053,362.203c6.305,6.443,7.542,8.089-4.581,5.537C586.393,364.926,591.18,362.47,593.053,362.203z"/>
		<path id="path3379" d="M464.422,468.673c-17.342,27.967,43.731,40.793,35.867,41.284
			C477.743,519.413,440.438,484.714,464.422,468.673L464.422,468.673z"/>
		<path id="path3381" d="M466.355,508.509c-20.688,5.224-18.333,42.903,1.908,50.832c17.269,2.615,9.952,1.645,15.685,0.22
			c-0.66,9.17-41.155,4.458-37.225-19.673c-5.954-16.588,12.62-36.796,24.261-34.918L466.355,508.509L466.355,508.509z"/>
		<path id="path3383" d="M513.857,533.5c-22.139,10.643-29.56,41.039,0.878,46.848c15.017,2.215,28.624,5.961,29.811-3.339
			c6-9.984,23.299-22.226,8.868-2.226c-18.077,29.79-90.374,0.379-56.784-27.685C502.032,542.415,506.356,535.257,513.857,533.5z"/>
		<path id="path3385" d="M539.446,528.651c-0.978,28.844,48.498,35.475,51.805,5.078c7.192-14.547-27.309-43.999,0.091-29.31
			c21.067,25.093-13.176,66.781-41.819,50.892C540.41,551.427,525.173,536.473,539.446,528.651z"/>
		<path id="path3387" d="M544.384,506.622c10.804,3.672,28.73-23.076,25.881-14.388c-4.901,3.535-15.882,19.282-29.24,17.781
			l2.678-2.9L544.384,506.622z"/>
		<path id="path3389" d="M559.035,449.813c0.325,7.702-10.607,2.303-0.309,0.179L559.035,449.813z"/>
		<path id="path3391" d="M527.433,469.214c-4.972,11.509-17.212,34.396-11.745,8.762
			C518.462,473.878,522.476,470.331,527.433,469.214z"/>
		<path id="path3393" d="M517.979,503.52c-11.124-2.351-7.711,0.435-12.519,14.796c4.043,11.896,20.357,20.132,22.823,11.917
			c29.115,3.154,3.426-35.707-14.697-26.405c9.72-2.573-8.507,2.232,6.56-4.682c29.809-11.836,27.324,41.506,12.653,30.407
			c-20.504,24.818-51.321-15.282-20.041-29.018C514.209,495.8,526.397,501.516,517.979,503.52z"/>
		<path id="path3395" d="M520.964,507.173c2.888,5.236,11.379,16.498-1.222,9.842C539.937,516.123,500.674,521.875,520.964,507.173
			L520.964,507.173z"/>
		<path id="path3397" d="M608.658,504.415c-1.304,11.992-16.09,42.371-10.116,12.794
			C599.219,511.638,602.593,505.514,608.658,504.415z"/>
		<path id="path3399" d="M584.505,558.621c-9.487,23.165,28.223,41.219,26.768,34.804c19.057-6.951-26.111,17.83-28.098-6.201
			C578.289,578.981,574.96,564.958,584.505,558.621z"/>
		<path id="path3401" d="M619.432,551.123c-4.202,24.22,5.102,57.571,36.155,47.598c-1.914,9.833,14.45-18.835,6.882-31.695
			c9.748-18.175,14.052,32.312-6.428,32.26C624.155,618.92,598.927,575.816,619.432,551.123L619.432,551.123z"/>
		<path id="path3403" d="M640.511,541.977c23.842,11.466,48.539,15.364,48.096-17.602c-0.415-8.836-33.192-32.068-7.799-21.005
			c34.128,18.074-4.94,70.495-33.948,46.793C644.246,549.1,629.219,544.433,640.511,541.977z"/>
		<path id="path3405" d="M638.56,513.13c7.404,0.286,32.856-36.961,19.354-14.341C657.044,503.143,624.549,526.535,638.56,513.13z"
			/>
		<path id="path3407" d="M641.318,492.398c-15.746-5.796-41.558,19.207-17.266-1.941
			C626.675,486.239,658.961,484.872,641.318,492.398z"/>
		<path id="path3409" d="M626.818,523.605c-17.974-8.904-21.058,17.223-9.426,28.709c15.945-0.169,11.74-10.639,16.747-23.478
			c1.012-7.927-15.867,5.827-1.233-5.046c25.576,13.84-32.415,53.748-27.97,14.228c-3.469-10.491,14.232-12.436,5.73-14.169
			C613.65,520.776,640.308,510.192,626.818,523.605z"/>
		<path id="path3411" d="M626.102,528.544C630.665,551.67,606.452,533.524,626.102,528.544z"/>
		<path id="path3413" d="M502.192,581.513c-22.909,24.229,26.162,23.575,29.432,19.45
			C515.406,616.658,469.68,603.436,502.192,581.513z"/>
		<path id="path3415" d="M567.821,565.827c19.263,1.905,8.935,31.021,0.826,6.983C561.683,571.712,561.382,567.952,567.821,565.827z
			"/>
		<path id="path3417" d="M544.215,584.423c-6.4,17.54,25.314,14.122,9.947,0.577c32.179,2.063-26.887,33.753-16.354,2.279
			l3.205-1.428L544.215,584.423L544.215,584.423z"/>
		<path id="path3419" d="M555.899,589.836C571.149,596.876,539.604,596.469,555.899,589.836z"/>
	<!-- </g> -->
<!-- </g> -->
</svg>
